<?xml version="1.0" standalone="no"?>
<!DOCTYPE svg PUBLIC "-//W3C//DTD SVG 20010904//EN"
 "http://www.w3.org/TR/2001/REC-SVG-20010904/DTD/svg10.dtd">
<svg version="1.0" xmlns="http://www.w3.org/2000/svg"
 width="500.000000pt" height="500.000000pt" viewBox="0 0 500.000000 500.000000"
 preserveAspectRatio="xMidYMid meet">
<metadata>
Created by potrace 1.14, written by Peter Selinger 2001-2017
</metadata>
<g transform="translate(0.000000,500.000000) scale(0.100000,-0.100000)"
fill="#000000" stroke="none">
<path d="M2918 4583 c6 -2 18 -2 25 0 6 3 1 5 -13 5 -14 0 -19 -2 -12 -5z"/>
<path d="M3035 4554 c200 -61 354 -129 506 -224 433 -269 737 -695 840 -1180
9 -47 18 -74 18 -60 1 29 -27 148 -63 270 -88 299 -249 547 -500 770 -264 233
-491 362 -751 425 -131 31 -155 31 -50 -1z"/>
<path d="M1810 4520 c-178 -57 -499 -247 -595 -351 -17 -19 1 -7 45 28 151
121 325 220 524 299 113 44 126 57 26 24z"/>
<path d="M2288 4493 c7 -3 16 -2 19 1 4 3 -2 6 -13 5 -11 0 -14 -3 -6 -6z"/>
<path d="M2746 4482 c7 -4 13 -15 15 -24 3 -15 6 -13 16 7 10 23 9 25 -15 25
-15 0 -22 -4 -16 -8z"/>
<path d="M2483 4425 c0 -33 2 -45 4 -27 2 18 2 45 0 60 -2 15 -4 0 -4 -33z"/>
<path d="M1985 4435 l-40 -13 36 -1 c19 -1 40 -6 47 -13 9 -9 12 -7 12 9 0 30
-9 32 -55 18z"/>
<path d="M1880 4403 c-40 -15 -42 -17 -21 -25 33 -12 70 0 68 23 -1 10 -1 19
-2 18 0 0 -20 -8 -45 -16z"/>
<path d="M3160 4380 c12 -8 10 -14 -15 -41 l-30 -33 33 27 c19 15 41 27 50 27
15 1 14 3 -2 15 -11 8 -27 15 -35 15 -14 0 -14 -2 -1 -10z"/>
<path d="M3250 4346 c0 -2 7 -7 16 -10 8 -3 12 -2 9 4 -6 10 -25 14 -25 6z"/>
<path d="M1708 4323 c7 -3 16 -2 19 1 4 3 -2 6 -13 5 -11 0 -14 -3 -6 -6z"/>
<path d="M3367 4289 c7 -7 15 -10 18 -7 3 3 -2 9 -12 12 -14 6 -15 5 -6 -5z"/>
<path d="M1588 4263 c7 -3 16 -2 19 1 4 3 -2 6 -13 5 -11 0 -14 -3 -6 -6z"/>
<path d="M1908 4223 c7 -3 16 -2 19 1 4 3 -2 6 -13 5 -11 0 -14 -3 -6 -6z"/>
<path d="M2290 4220 c-795 -102 -1385 -800 -1311 -1551 33 -343 169 -628 416
-874 130 -130 251 -215 418 -295 231 -110 433 -155 692 -154 255 0 461 47 680
154 419 204 687 528 801 965 22 84 27 129 31 285 4 163 2 198 -17 290 -63 308
-195 547 -421 765 -205 196 -463 331 -759 396 -106 23 -413 34 -530 19z m395
-164 c30 -20 33 -58 6 -85 -62 -62 -228 -10 -191 59 26 48 129 63 185 26z
m-334 5 c-11 -7 -9 -17 8 -56 12 -27 20 -49 18 -51 -1 -2 -39 8 -82 21 -44 14
-83 25 -88 25 -13 0 23 -61 39 -67 13 -5 13 -7 2 -14 -21 -14 -48 -11 -42 5 8
21 -24 76 -49 85 -20 8 -18 9 16 19 32 9 50 7 100 -8 34 -11 62 -18 63 -17 7
9 -19 47 -33 48 -16 0 -16 1 2 9 27 12 65 13 46 1z m494 -21 c63 -13 77 -22
69 -43 -8 -21 -24 -22 -24 -2 0 14 -37 35 -60 35 -11 0 -24 -39 -16 -47 3 -4
15 2 26 12 22 20 26 9 8 -30 -13 -28 -28 -33 -28 -9 0 9 -6 14 -12 11 -7 -2
-12 -16 -11 -30 1 -24 -1 -25 -35 -20 -38 6 -69 23 -41 23 8 0 22 20 32 46 14
38 15 50 5 62 -11 13 -10 14 12 9 14 -3 48 -11 75 -17z m-714 -70 c46 -25 8
-91 -63 -111 -108 -29 -172 48 -85 102 35 21 116 26 148 9z m995 -32 c37 -18
42 -24 33 -40 -13 -23 -29 -23 -29 1 0 21 -27 48 -37 37 -4 -4 -2 -16 5 -26 7
-11 17 -28 24 -39 6 -10 8 -26 5 -35 -8 -21 -80 -22 -97 -1 -7 8 -19 15 -26
15 -16 0 -16 2 -8 24 7 19 24 21 24 3 0 -22 34 -47 50 -37 11 7 9 16 -14 49
-24 34 -26 43 -16 56 17 20 35 19 86 -7z m-1241 -28 c-9 -14 57 -91 73 -85 28
10 9 -13 -23 -28 -42 -20 -49 -21 -39 -6 7 12 -54 79 -73 79 -23 0 -14 16 20
33 38 19 51 21 42 7z m1371 -43 c11 -7 33 -22 49 -34 23 -19 25 -25 15 -38
-18 -22 -30 -18 -30 8 0 45 -45 62 -88 31 -44 -30 -19 -93 38 -94 17 0 21 -3
13 -11 -14 -14 -76 12 -97 42 -23 34 -20 65 10 88 30 24 59 26 90 8z m-1461
-17 c3 -6 -5 -10 -19 -10 -14 0 -28 -5 -32 -11 -8 -14 44 -68 74 -76 23 -5 23
-6 -7 -24 l-31 -19 -36 40 c-39 43 -73 52 -81 21 -3 -12 -11 -17 -19 -14 -20
8 -9 20 59 64 62 40 81 46 92 29z m948 -61 c538 -108 919 -598 857 -1103 -52
-432 -359 -768 -815 -892 -92 -25 -115 -27 -285 -27 -168 0 -194 2 -283 26
-246 66 -457 199 -602 380 -163 204 -242 458 -217 697 25 240 109 422 273 594
272 287 666 407 1072 325z m672 -39 c4 -6 0 -10 -6 -10 -18 0 -89 -71 -89 -89
0 -10 -10 -5 -30 14 -20 20 -26 31 -18 34 27 8 86 74 80 89 -4 12 3 10 26 -6
17 -13 34 -27 37 -32z m161 -215 c-3 -23 -8 -49 -12 -58 -6 -16 -4 -16 20 -6
14 7 26 18 26 26 0 19 13 16 28 -7 11 -18 10 -20 -8 -20 -11 0 -41 -13 -67
-29 -26 -17 -49 -29 -50 -27 -2 1 4 33 12 71 8 38 12 71 10 73 -8 8 -75 -49
-70 -59 4 -5 3 -9 -2 -8 -4 0 -36 34 -71 75 -46 54 -58 74 -46 74 22 0 84 58
84 79 1 9 34 -19 76 -64 74 -78 76 -81 70 -120z m-1930 170 c27 -8 60 -15 74
-15 l25 -1 -30 -24 c-31 -25 -51 -33 -40 -15 10 16 -17 11 -37 -7 -23 -21 -23
-34 0 -26 9 3 -5 -17 -33 -45 -44 -46 -76 -69 -61 -43 7 11 -52 50 -90 60
l-25 6 31 30 c19 18 30 24 30 14 0 -8 21 -27 46 -43 42 -27 47 -28 62 -12 15
15 14 20 -11 71 -15 31 -27 58 -27 60 0 9 37 5 86 -10z m-210 -150 c19 -14 19
-14 -1 -15 -29 0 -65 -28 -65 -50 0 -40 83 -67 109 -36 7 8 16 27 21 43 l8 28
1 -28 c2 -71 -118 -119 -155 -62 -20 31 -13 62 23 102 33 37 34 37 59 18z
m2226 -136 c11 -6 29 -31 40 -57 20 -43 20 -46 3 -58 -21 -15 -42 -7 -26 9 27
27 5 77 -34 77 -58 0 -88 -72 -43 -104 12 -9 19 -18 15 -22 -3 -3 -17 6 -31
21 -65 70 -4 177 76 134z m-2279 -37 c43 -38 -7 -132 -70 -132 -87 0 -102 110
-20 145 35 15 62 11 90 -13z m2377 -157 c23 -69 21 -85 -12 -85 -20 0 -20 1
-4 19 11 13 15 27 11 40 -7 22 -14 25 -39 15 -23 -9 -19 -24 6 -24 33 0 9 -19
-32 -25 -19 -3 -29 -3 -22 1 6 3 12 12 12 20 0 12 -4 12 -20 4 -25 -13 -25
-35 -1 -59 17 -17 17 -20 4 -25 -20 -8 -16 -13 -40 61 -17 54 -18 61 -4 60 23
-1 111 40 111 52 0 25 10 7 30 -54z m-2533 19 c26 -7 21 -24 -7 -24 -21 0 -34
-15 -25 -30 4 -6 21 0 43 15 46 31 69 32 83 1 16 -34 -7 -86 -38 -86 -12 0
-25 5 -28 10 -3 6 3 10 13 10 27 0 49 27 34 42 -8 8 -21 4 -50 -15 -44 -31
-55 -33 -72 -12 -11 13 -10 23 0 55 14 43 14 43 47 34z m-34 -131 c4 -3 -3
-11 -15 -17 -24 -12 -36 -36 -18 -36 7 0 25 11 42 25 35 29 50 31 73 8 11 -11
15 -25 10 -42 -3 -14 -6 -32 -7 -38 -1 -15 -58 -18 -58 -4 0 5 11 12 25 15 14
4 25 13 25 21 0 27 -22 27 -50 0 -50 -48 -106 -18 -79 43 13 30 37 41 52 25z
m2621 -150 c3 -10 5 -33 4 -50 -1 -28 -5 -33 -25 -33 l-24 0 20 26 c19 25 20
44 2 44 -4 0 -16 -18 -26 -40 -33 -73 -87 -60 -89 22 -1 39 2 43 24 47 24 3
25 3 7 -17 -19 -21 -20 -52 -2 -54 6 -1 18 14 27 33 26 52 36 61 58 49 10 -5
21 -18 24 -27z m-2545 0 c-1 -25 -17 -62 -19 -43 0 12 -4 11 -15 -4 -22 -29
-19 -49 5 -41 16 5 20 2 20 -19 0 -28 -14 -34 -27 -13 -4 8 -33 27 -63 43 -30
16 -54 33 -53 39 1 5 29 17 62 25 33 8 63 18 67 23 13 13 24 8 23 -10z m2551
-178 c0 -61 -3 -75 -15 -75 -12 0 -13 4 -5 19 5 11 10 23 10 27 0 12 -113 -4
-121 -18 -5 -8 -8 7 -8 37 0 28 3 44 6 38 5 -13 79 -18 107 -7 18 7 22 34 5
34 -5 0 -7 5 -4 10 16 26 25 3 25 -65z m-2622 -75 l66 0 -54 -55 -54 -55 37 0
c21 0 47 4 57 10 14 7 19 6 22 -8 5 -16 -1 -18 -54 -14 -36 3 -64 0 -71 -7
-18 -18 -27 -13 -27 16 0 18 13 40 36 64 l36 37 -40 -8 c-35 -6 -41 -4 -45 12
-4 14 -2 18 10 14 8 -3 44 -6 81 -6z m2607 -98 c-5 -13 -8 -13 -14 -4 -12 20
-101 11 -115 -11 -9 -15 -7 -21 8 -33 24 -17 92 -19 99 -1 3 6 6 0 6 -15 1
-15 -3 -30 -9 -33 -5 -3 -10 -2 -10 4 0 5 -19 12 -42 16 -55 9 -68 20 -68 57
0 44 42 82 84 75 18 -3 39 -1 47 4 10 6 15 2 17 -17 2 -14 1 -33 -3 -42z
m-2515 -92 c7 -26 7 -31 -5 -26 -17 6 -20 -21 -5 -44 9 -13 11 -13 19 0 8 12
11 11 17 -5 4 -11 9 -24 12 -29 3 -6 -3 -6 -14 -2 -10 5 -52 17 -91 28 -40 11
-73 23 -72 27 0 6 122 88 127 85 1 -1 7 -16 12 -34z m2430 -35 c67 0 66 2 30
-82 -22 -50 -60 -78 -95 -69 -39 10 -51 46 -35 109 16 65 20 73 31 56 5 -9 29
-14 69 -14z m-2372 -128 c11 -26 11 -28 -7 -22 -24 7 -104 -10 -109 -24 -7
-20 -20 -11 -31 20 -13 39 -13 42 -2 35 14 -9 121 16 121 27 0 16 14 -2 28
-36z m2298 -57 c39 -11 47 -11 55 1 22 35 7 -16 -23 -76 -21 -42 -38 -65 -50
-65 -27 0 -30 17 -5 24 23 5 51 48 40 60 -9 9 -43 7 -43 -2 0 -4 5 -13 12 -20
16 -16 -1 -16 -39 -1 l-28 11 23 9 c26 10 21 29 -7 29 -22 0 -44 -45 -35 -72
5 -17 3 -18 -14 -9 -20 10 -19 13 16 81 25 49 38 66 44 57 4 -8 28 -20 54 -27z
m-2270 -4 c3 -14 -1 -37 -11 -56 -16 -32 -16 -32 7 -25 13 4 26 12 29 17 3 5
14 -3 23 -17 10 -15 16 -28 14 -29 -2 -1 -25 -7 -53 -14 -27 -7 -55 -20 -62
-28 -10 -13 -16 -8 -42 38 -35 60 -37 71 -17 87 11 10 20 10 37 0 19 -10 25
-9 36 7 7 10 13 24 13 31 0 22 19 14 26 -11z m2144 -118 c0 -21 80 -50 97 -37
22 19 23 6 2 -28 -14 -22 -37 -37 -80 -53 -57 -22 -59 -23 -39 -37 12 -8 28
-12 36 -9 12 4 12 2 4 -14 -14 -26 -30 -35 -30 -16 0 9 -18 25 -39 36 -22 11
-42 24 -45 29 -4 5 18 17 46 27 29 9 66 23 82 29 l30 13 -33 17 c-19 9 -42 15
-52 12 -22 -6 -23 -3 -7 23 14 23 28 26 28 8z m-2011 -83 c33 -44 38 -55 24
-55 -28 0 -102 -34 -105 -48 -2 -7 -23 13 -48 44 -25 31 -44 59 -43 63 1 3 11
7 21 9 16 2 19 -2 15 -21 -6 -29 16 -48 45 -40 26 7 19 23 -11 23 -24 0 -14
11 26 28 26 11 28 11 22 -8 -7 -21 2 -25 30 -14 14 6 13 9 -6 30 -12 13 -31
24 -41 24 -11 0 -16 5 -13 10 14 23 45 7 84 -45z m123 -143 c41 -45 47 -71 21
-97 -30 -31 -89 -14 -145 42 l-49 49 25 12 c24 11 26 10 26 -14 0 -56 44 -85
94 -63 33 15 40 38 20 60 -21 24 -44 24 -44 2 0 -13 -7 -10 -30 12 -16 16 -30
31 -30 35 0 3 16 5 37 5 29 -1 44 -10 75 -43z m1743 26 c-5 -14 74 -70 87 -62
4 3 8 14 8 25 0 10 7 19 15 19 8 0 15 -4 15 -10 0 -16 -118 -135 -126 -127 -4
4 2 14 14 23 12 8 22 18 22 22 0 13 -73 57 -89 54 -16 -4 -12 2 28 51 16 20
33 23 26 5z m-110 -139 c-34 -6 -54 -21 -55 -41 0 -13 33 -8 60 7 40 23 70 19
70 -9 0 -17 -15 -37 -49 -66 -48 -39 -50 -40 -61 -20 -10 18 -8 20 18 20 27 0
61 24 50 35 -2 3 -26 -2 -51 -11 -26 -9 -54 -13 -62 -10 -23 8 -18 40 10 67
14 13 35 34 47 46 22 20 24 21 42 5 17 -16 17 -17 -19 -23z m-1505 0 c19 -17
28 -28 18 -25 -18 5 -80 -37 -89 -61 -4 -13 -11 -10 -40 16 -19 18 -29 30 -22
27 16 -9 93 46 88 62 -7 20 9 14 45 -19z m89 -121 c7 -32 17 -60 22 -64 12 -7
60 46 53 58 -7 11 3 10 27 -2 10 -6 19 -15 19 -21 0 -6 -5 -7 -11 -3 -6 3 -26
-9 -45 -27 -26 -25 -31 -36 -23 -46 16 -19 1 -16 -35 7 -25 15 -35 31 -45 69
-11 45 -15 50 -32 41 -10 -6 -19 -17 -19 -25 0 -8 -3 -15 -7 -15 -11 1 -43 26
-43 34 0 4 8 5 18 2 10 -3 32 8 57 29 22 19 43 31 46 27 3 -4 11 -33 18 -64z
m1061 -60 c0 -11 -18 -10 -25 2 -10 16 -65 12 -65 -4 0 -14 29 -26 67 -26 12
0 29 -7 37 -16 32 -31 -7 -61 -100 -78 -28 -4 -32 -2 -37 20 -2 13 0 27 4 30
5 3 9 1 9 -4 0 -13 50 -29 73 -24 37 8 16 31 -39 42 -31 7 -58 18 -61 27 -9
22 29 54 66 55 17 1 34 6 38 11 6 10 33 -19 33 -35z m-629 -22 c9 -11 26 -32
37 -46 l21 -25 1 37 c0 20 -6 39 -12 41 -7 3 5 6 27 6 30 0 36 -2 23 -9 -10
-7 -18 -30 -23 -70 -4 -33 -10 -60 -14 -60 -4 0 -29 27 -57 60 -27 32 -52 56
-55 52 -4 -4 -9 -24 -12 -44 -4 -29 -2 -40 11 -48 14 -8 11 -9 -13 -10 -39 0
-65 15 -37 22 23 7 46 100 28 119 -8 8 -2 9 24 4 19 -4 42 -17 51 -29z m465
-13 c-2 -3 -16 3 -30 12 -27 18 -61 14 -54 -7 2 -6 25 -17 52 -25 87 -26 65
-78 -36 -85 l-58 -5 0 31 0 30 20 -22 c12 -13 33 -22 50 -22 48 0 36 26 -21
45 -83 28 -75 70 17 83 43 7 50 5 57 -12 4 -10 5 -21 3 -23z m-217 -19 c13
-25 37 -56 52 -68 l28 -24 -45 -7 c-43 -6 -75 2 -46 12 6 3 10 9 6 14 -7 12
-81 12 -89 -1 -3 -5 -1 -10 4 -10 6 0 11 -4 11 -10 0 -5 -13 -10 -30 -10 -31
0 -41 14 -16 23 8 3 31 33 51 66 21 34 41 61 44 61 3 0 17 -20 30 -46z"/>
<path d="M2566 4044 c-21 -20 -21 -70 0 -78 48 -19 94 10 94 60 0 35 -65 48
-94 18z"/>
<path d="M2014 3960 c-32 -13 -38 -28 -20 -55 20 -30 53 -40 89 -26 34 13 34
35 2 66 -26 27 -37 29 -71 15z"/>
<path d="M2036 3531 c-3 -5 -32 -11 -63 -13 -39 -3 -70 -12 -95 -29 -33 -21
-38 -29 -38 -64 0 -31 -7 -50 -30 -75 -24 -29 -29 -44 -30 -87 0 -29 -5 -73
-12 -97 -10 -38 -10 -48 4 -63 24 -28 32 -89 14 -115 -9 -12 -13 -32 -9 -48 3
-20 0 -31 -14 -41 -19 -15 -34 -43 -49 -94 -6 -19 -17 -31 -31 -33 -15 -2 -24
-13 -28 -33 -11 -49 -8 -390 3 -401 5 -5 66 -11 135 -11 142 -2 157 -9 192
-88 10 -21 22 -39 27 -39 4 0 8 -9 8 -21 0 -38 59 -136 94 -154 32 -17 38 -17
132 -1 55 10 121 20 149 23 82 9 145 88 145 182 0 33 7 45 58 93 31 31 62 64
68 74 6 11 24 23 40 27 16 5 40 12 54 16 19 5 31 1 53 -20 15 -15 27 -32 27
-38 0 -14 11 -14 44 -1 16 6 26 17 26 30 0 11 9 29 20 40 11 11 20 24 20 28 0
5 13 34 29 65 16 31 32 72 35 92 5 23 21 49 48 74 32 31 41 48 45 83 3 27 12
48 24 57 12 8 19 25 19 46 0 18 8 39 19 49 10 9 21 33 24 52 8 48 48 124 65
124 8 0 28 12 45 26 28 24 32 33 32 82 1 51 -2 59 -32 89 -20 21 -33 44 -34
61 0 15 -17 54 -38 87 -53 85 -89 86 -179 1 l-42 -40 -48 18 c-58 22 -196 34
-206 17 -4 -6 -20 -11 -36 -11 -21 0 -37 -11 -62 -39 -32 -38 -34 -39 -88 -33
-52 4 -140 44 -140 62 0 17 -62 16 -85 -2 -13 -10 -32 -18 -42 -18 -10 0 -24
-5 -30 -11 -7 -7 -23 4 -54 40 -32 37 -53 53 -79 57 -19 4 -47 13 -62 20 -32
16 -35 17 -42 5z m494 -201 c56 0 62 -11 28 -47 -12 -13 -16 -23 -10 -23 21 0
13 -31 -17 -69 -31 -38 -84 -75 -95 -64 -12 12 -6 43 9 43 9 0 15 9 15 24 0
30 -25 40 -75 30 -22 -4 -35 -2 -35 4 0 6 -19 15 -42 19 -39 8 -40 9 -24 26
10 9 15 21 12 26 -3 5 15 27 40 49 l45 41 50 -30 c37 -21 63 -29 99 -29z m198
-231 l3 -87 -28 -5 c-15 -3 -29 -4 -31 -2 -7 6 -10 111 -5 148 5 34 9 38 32
35 26 -3 26 -5 29 -89z m-320 42 c3 -10 -1 -12 -19 -8 -13 4 -48 10 -76 13
-49 6 -61 13 -48 26 10 10 138 -17 143 -31z m-47 -23 c16 -25 -8 -29 -45 -8
-20 12 -36 24 -36 27 0 11 74 -7 81 -19z m194 -28 c-1 -11 -11 -27 -23 -36
-24 -16 -30 -50 -10 -56 7 -3 8 -9 3 -18 -15 -24 -13 -71 5 -129 15 -47 18
-52 25 -32 4 12 9 20 12 17 3 -3 0 -19 -6 -36 -12 -35 -1 -95 30 -167 23 -52
23 -53 4 -53 -8 0 -15 5 -15 11 0 6 -7 9 -15 5 -18 -6 -19 -1 -5 24 8 15 2 21
-40 39 -53 23 -63 39 -30 48 11 3 20 10 20 15 0 6 -10 7 -22 3 -13 -3 -29 -7
-35 -7 -16 -2 -17 -18 -2 -18 8 0 8 -4 2 -12 -5 -7 -10 -26 -11 -41 -2 -34
-10 -49 -22 -42 -4 3 -6 -4 -3 -15 4 -16 0 -20 -21 -20 -15 0 -29 7 -32 15 -4
8 -17 15 -31 15 -18 0 -24 -4 -19 -15 17 -43 17 -49 -3 -25 -25 30 -25 38 -7
87 8 21 26 79 41 128 14 50 31 103 36 119 19 61 6 106 -31 106 -8 0 -21 9 -28
20 -7 11 -19 20 -28 20 -9 0 -14 6 -11 13 4 11 16 12 96 3 26 -3 35 0 38 15 3
11 17 20 37 24 43 6 79 12 92 14 6 0 10 -8 9 -19z m-581 -14 c-5 -13 -9 -14
-20 -5 -11 9 -18 8 -29 -1 -12 -10 -15 -10 -15 3 0 10 11 17 33 19 40 4 39 4
31 -16z m36 4 c0 -5 -2 -10 -4 -10 -3 0 -8 5 -11 10 -3 6 -1 10 4 10 6 0 11
-4 11 -10z m50 -24 c18 -7 28 -16 23 -19 -5 -3 -22 3 -39 14 -34 22 -29 24 16
5z m95 -46 c3 -6 -1 -7 -9 -4 -18 7 -21 14 -7 14 6 0 13 -4 16 -10z m911 -83
l27 -30 -24 -18 c-13 -10 -27 -19 -31 -19 -5 0 -8 -6 -8 -12 -1 -14 -55 -78
-67 -78 -5 0 -21 -18 -36 -40 -16 -22 -33 -38 -38 -34 -5 3 -8 1 -7 -4 4 -11
-99 -122 -113 -122 -6 0 -8 -4 -5 -8 5 -8 -62 -78 -68 -71 -1 2 -17 24 -36 48
-30 39 -32 44 -17 53 10 5 23 16 30 25 6 8 39 45 73 82 33 36 76 83 95 105 19
21 54 60 79 86 25 25 56 59 69 75 23 27 25 27 37 10 8 -10 26 -32 40 -48z
m-847 9 c34 -33 61 -102 61 -158 0 -35 -2 -38 -23 -33 -18 5 -26 1 -34 -18
-14 -31 1 -57 32 -57 18 0 25 -5 25 -20 0 -25 -37 -63 -55 -56 -8 3 -37 -6
-64 -20 -40 -19 -60 -23 -92 -18 -70 12 -88 50 -47 104 20 27 23 29 39 14 25
-22 63 -14 67 14 2 12 10 22 19 22 10 0 13 -6 9 -16 -5 -12 -2 -15 10 -10 8 3
20 6 25 6 5 0 9 13 9 29 0 16 7 34 15 41 20 17 19 44 -2 62 -14 11 -41 14
-110 13 -51 -1 -93 2 -93 7 0 7 39 12 75 10 11 -1 58 68 52 75 -3 2 -17 -2
-32 -9 -24 -11 -29 -10 -46 12 -10 14 -19 27 -19 30 0 3 34 5 75 5 68 -1 77
-3 104 -29z m-119 -50 c0 -3 -4 -8 -10 -11 -5 -3 -10 -1 -10 4 0 6 5 11 10 11
6 0 10 -2 10 -4z m490 -101 c-15 -41 -21 -26 -8 21 6 21 13 32 15 23 2 -8 -1
-28 -7 -44z m-294 -92 c-10 -10 -19 5 -10 18 6 11 8 11 12 0 2 -7 1 -15 -2
-18z m232 -60 c2 -8 -5 -13 -17 -13 -12 0 -21 6 -21 16 0 18 31 15 38 -3z m6
-42 c7 -11 -22 -23 -35 -15 -5 3 -9 9 -9 15 0 12 37 12 44 0z m-164 -156 c0
-9 -30 -13 -107 -14 -58 -1 -110 -4 -114 -7 -11 -6 -21 14 -14 27 10 15 235
10 235 -6z m-110 -146 c0 -4 17 -9 38 -11 54 -4 41 -22 -20 -26 -46 -3 -50 -2
-38 13 11 14 10 17 -8 22 -12 3 -20 9 -17 13 6 10 45 1 45 -11z m-59 -22 c-1
-12 -15 -9 -19 4 -3 6 1 10 8 8 6 -3 11 -8 11 -12z"/>
<path d="M2452 2756 c4 -25 24 -32 32 -11 4 10 2 14 -5 9 -6 -4 -15 0 -21 7
-7 11 -8 10 -6 -5z"/>
<path d="M2515 2680 c-3 -5 -2 -10 4 -10 5 0 13 5 16 10 3 6 2 10 -4 10 -5 0
-13 -4 -16 -10z"/>
<path d="M2327 2636 c-4 -10 -5 -21 -2 -24 9 -9 17 6 13 25 -3 17 -4 17 -11
-1z"/>
<path d="M2137 2894 c-4 -4 -7 -14 -7 -23 0 -11 3 -12 11 -4 6 6 10 16 7 23
-2 6 -7 8 -11 4z"/>
<path d="M3452 3658 c-19 -19 -14 -30 11 -22 l22 6 -24 -26 c-29 -31 -45 -34
-36 -6 7 23 -7 26 -25 5 -18 -22 -5 -45 31 -52 30 -6 31 -7 14 -20 -18 -12
-18 -13 -1 -13 10 0 35 12 57 28 44 31 53 58 15 48 -20 -5 -23 -3 -19 14 5 19
-11 50 -26 50 -4 0 -12 -5 -19 -12z"/>
<path d="M1600 3659 c10 -17 14 -18 27 -8 13 12 13 14 -4 20 -30 12 -34 10
-23 -12z"/>
<path d="M1273 3363 c-7 -2 -13 -16 -13 -29 0 -34 58 -63 95 -46 66 30 -13
103 -82 75z"/>
<path d="M1181 2911 l-24 -6 27 -12 c23 -11 26 -11 26 7 0 11 -1 20 -2 19 -2
-1 -14 -4 -27 -8z"/>
<path d="M1227 2474 c-9 -10 2 -24 19 -24 8 0 14 7 14 15 0 15 -21 21 -33 9z"/>
<path d="M3633 2432 c-15 -37 58 -70 93 -41 26 21 15 36 -37 46 -42 9 -52 8
-56 -5z"/>
<path d="M1283 2224 c-8 -23 10 -36 36 -26 22 8 22 9 6 25 -21 21 -34 22 -42
1z"/>
<path d="M2466 1579 c-15 -21 -15 -24 -1 -27 8 -2 21 -2 29 0 12 2 13 7 2 27
l-13 24 -17 -24z"/>
<path d="M3585 4150 c10 -11 20 -20 23 -20 3 0 -3 9 -13 20 -10 11 -20 20 -23
20 -3 0 3 -9 13 -20z"/>
<path d="M1442 4070 c0 -19 2 -27 5 -17 2 9 2 25 0 35 -3 9 -5 1 -5 -18z"/>
<path d="M1484 4048 l-19 -23 23 19 c21 18 27 26 19 26 -2 0 -12 -10 -23 -22z"/>
<path d="M979 3935 c-106 -121 -148 -188 -240 -380 -81 -169 -151 -393 -148
-470 0 -11 11 25 23 81 69 311 215 588 450 852 10 12 17 22 13 22 -3 0 -47
-47 -98 -105z"/>
<path d="M1451 4014 c0 -11 3 -14 6 -6 3 7 2 16 -1 19 -3 4 -6 -2 -5 -13z"/>
<path d="M3752 4004 c29 -15 58 -61 58 -90 0 -13 3 -14 14 -5 13 11 13 15 1
29 -43 52 -75 82 -87 82 -7 -1 -1 -7 14 -16z"/>
<path d="M1214 3978 l-29 -33 33 29 c30 28 37 36 29 36 -2 0 -16 -15 -33 -32z"/>
<path d="M1180 3911 c0 -5 5 -13 10 -16 6 -3 10 -2 10 4 0 5 -4 13 -10 16 -5
3 -10 2 -10 -4z"/>
<path d="M3954 3745 c-18 -14 -18 -14 8 -15 15 0 37 -10 49 -22 18 -20 20 -20
10 -3 -14 25 -37 55 -43 55 -2 0 -13 -7 -24 -15z"/>
<path d="M945 3639 c-4 -6 -5 -12 -2 -15 2 -3 7 2 10 11 7 17 1 20 -8 4z"/>
<path d="M831 3422 c-17 -31 -13 -40 5 -14 9 13 14 26 11 29 -3 2 -10 -4 -16
-15z"/>
<path d="M4160 3430 c0 -5 5 -10 11 -10 5 0 7 5 4 10 -3 6 -8 10 -11 10 -2 0
-4 -4 -4 -10z"/>
<path d="M4172 3286 c26 -12 55 -29 64 -37 15 -13 16 -12 9 11 -4 14 -12 30
-18 35 -7 7 -8 6 -3 -2 9 -17 -7 -16 -51 2 -54 23 -55 17 -1 -9z"/>
<path d="M766 3265 c-9 -26 -7 -32 5 -12 6 10 9 21 6 23 -2 3 -7 -2 -11 -11z"/>
<path d="M4402 3035 c0 -16 2 -22 5 -12 2 9 2 23 0 30 -3 6 -5 -1 -5 -18z"/>
<path d="M582 3020 c0 -14 2 -19 5 -12 2 6 2 18 0 25 -3 6 -5 1 -5 -13z"/>
<path d="M573 2945 c0 -27 2 -38 4 -22 2 15 2 37 0 50 -2 12 -4 0 -4 -28z"/>
<path d="M566 2694 c3 -67 9 -134 14 -150 9 -31 7 21 -10 186 -8 77 -8 74 -4
-36z"/>
<path d="M4219 2743 l0 -28 -16 23 c-20 28 -38 29 -23 1 7 -11 9 -23 7 -26 -3
-2 -15 0 -26 7 -28 15 -27 -3 2 -23 l22 -16 -27 0 c-36 -1 -37 -21 -2 -21 l26
0 -23 -21 -24 -20 27 5 c26 6 27 5 18 -19 -12 -31 2 -33 23 -2 l16 22 0 -27
c1 -36 21 -37 21 -2 l0 26 20 -23 c21 -26 27 -11 9 22 -9 19 -9 19 10 10 33
-18 48 -12 22 9 l-23 20 26 0 c36 0 33 17 -4 22 -24 4 -30 1 -30 -14 0 -23
-26 -24 -34 -1 -9 23 20 51 35 36 8 -8 18 -9 31 -2 28 15 22 30 -7 19 -24 -9
-25 -8 -19 18 l5 27 -20 -24 -21 -23 0 26 c0 35 -20 34 -21 -1z"/>
<path d="M816 2601 c-4 -7 -5 -15 -2 -18 9 -9 19 4 14 18 -4 11 -6 11 -12 0z"/>
<path d="M859 2575 c-3 -2 -16 -6 -30 -8 -17 -3 -27 -14 -35 -38 l-12 -34 -35
38 c-20 20 -42 37 -49 37 -7 0 -2 -9 12 -20 l25 -20 -27 0 c-16 0 -28 -4 -28
-10 0 -5 12 -10 26 -10 l26 0 -23 -21 -24 -20 26 5 c24 5 26 3 22 -22 l-5 -27
21 25 21 25 0 -27 c0 -16 5 -28 10 -28 6 0 10 12 10 28 l0 27 20 -25 c21 -27
27 -12 9 21 -9 19 -9 19 10 10 33 -18 48 -12 21 9 l-25 20 28 0 c15 0 27 5 27
10 0 6 -12 10 -27 10 l-28 0 25 20 c14 10 22 21 19 24 -3 3 -8 4 -10 1z"/>
<path d="M596 2450 c10 -120 62 -286 138 -440 96 -195 194 -326 372 -500 l108
-105 -110 115 c-259 272 -412 549 -490 890 -22 98 -24 101 -18 40z"/>
<path d="M4321 2213 c-1 -6 -4 -20 -7 -30 -5 -17 -5 -17 6 0 6 10 9 23 6 30
-3 9 -5 9 -5 0z"/>
<path d="M4280 2103 c-41 -111 -161 -315 -249 -423 -19 -24 -30 -41 -23 -36
16 9 119 147 159 211 62 101 150 291 139 302 -2 2 -14 -22 -26 -54z"/>
<path d="M3885 1518 c-44 -44 -66 -71 -49 -60 28 19 142 142 132 142 -2 0 -39
-37 -83 -82z"/>
<path d="M4700 1403 c-36 -1 -144 -12 -240 -22 -96 -11 -247 -23 -335 -26 -88
-4 -205 -10 -260 -13 l-100 -7 -3 -102 -3 -102 -56 -21 c-203 -76 -544 -160
-724 -180 -57 -6 -133 -16 -169 -22 -86 -16 -651 -15 -790 0 -112 13 -314 58
-445 99 -112 36 -257 93 -273 107 -7 7 -17 50 -21 96 -6 57 -14 87 -25 95 -15
12 -170 21 -486 30 -80 3 -228 7 -330 10 -101 3 -182 4 -179 1 3 -3 30 -18 60
-34 96 -50 183 -103 203 -122 18 -18 19 -21 3 -37 -8 -10 -69 -45 -134 -78
-65 -33 -120 -61 -123 -63 -11 -8 31 -22 139 -46 64 -15 168 -41 231 -58 63
-16 153 -39 200 -50 47 -10 88 -22 92 -26 4 -4 8 -32 10 -62 l3 -54 77 -33
c134 -56 359 -119 528 -149 257 -45 811 -81 1065 -69 371 17 763 67 995 125
103 26 294 89 422 139 116 46 115 45 120 126 3 40 3 40 53 48 28 4 115 23 195
42 121 28 334 73 429 92 14 2 20 8 15 13 -10 9 -132 59 -224 92 -65 23 -73 29
-65 51 7 16 177 142 231 170 17 9 36 23 43 31 12 14 9 16 -25 14 -22 -1 -68
-3 -104 -5z m-3596 -382 c18 -8 23 -15 19 -30 -7 -27 -19 -27 -26 -1 -5 20
-27 29 -27 11 0 -5 11 -29 25 -52 14 -24 25 -37 25 -28 0 28 28 45 51 31 10
-7 26 -12 35 -12 13 0 15 -6 9 -37 -4 -21 -8 -46 -7 -55 1 -20 -6 -22 -28 -8
-12 7 -12 12 -2 22 14 14 16 62 2 53 -6 -3 -13 1 -16 9 -10 27 -24 18 -24 -15
0 -26 3 -29 20 -24 24 8 25 2 5 -19 -19 -19 -45 -10 -45 15 0 21 -16 26 -22 8
-3 -8 -15 -9 -36 -4 -25 5 -32 12 -32 30 0 13 5 27 10 30 6 3 10 -3 10 -13 0
-25 25 -48 35 -32 4 6 -3 27 -14 46 -21 35 -27 65 -14 77 9 9 17 9 47 -2z
m2988 -36 c-9 -14 -2 -59 10 -66 6 -4 7 -12 3 -18 -11 -19 -35 7 -35 39 0 16
-4 30 -9 32 -5 2 -7 16 -4 31 5 27 6 27 23 10 10 -10 15 -22 12 -28z m-2867
-5 c3 -5 1 -10 -4 -10 -6 0 -11 5 -11 10 0 6 2 10 4 10 3 0 8 -4 11 -10z
m2829 -43 c5 -20 13 -37 18 -37 17 0 7 -18 -12 -23 -16 -4 -20 0 -21 21 0 15
-4 36 -9 47 -7 18 -8 18 -15 3 -4 -10 -2 -32 4 -48 9 -26 8 -32 -7 -36 -9 -3
-28 -11 -41 -17 -19 -10 -25 -8 -38 8 -15 20 -15 20 -10 -2 3 -13 -1 -24 -8
-27 -9 -3 -15 9 -20 40 -3 24 -11 44 -17 44 -9 0 -8 -41 3 -79 2 -8 -3 -16
-11 -18 -11 -3 -16 6 -17 33 -2 40 -7 49 -21 40 -6 -4 -7 -20 -2 -43 10 -41 8
-45 -18 -48 -30 -4 -52 -17 -52 -31 0 -8 6 -14 13 -14 8 0 7 -4 -3 -10 -28
-18 -35 -10 -37 47 -2 31 -8 61 -14 67 -7 8 -8 3 -4 -17 15 -58 -19 -99 -53
-65 -19 19 -15 76 7 87 10 6 21 8 24 4 4 -3 13 0 22 7 8 7 27 13 42 15 16 1
41 8 56 14 16 6 34 11 41 11 6 0 17 5 24 12 14 14 28 3 35 -27 4 -16 5 -14 6
6 1 38 27 57 48 37 17 -18 10 -38 -13 -38 -8 0 -14 -7 -14 -15 0 -8 7 -15 15
-15 8 0 15 5 15 11 0 8 6 7 17 -2 15 -13 16 -11 10 21 -4 18 -12 37 -18 40 -6
4 -4 12 6 20 8 7 15 9 15 4 0 -4 5 -3 12 4 19 19 32 9 42 -31z m-2766 -44 c3
-19 -1 -23 -23 -23 -32 0 -29 -23 4 -28 18 -3 20 -6 10 -18 -16 -20 -26 -18
-45 11 -14 21 -14 30 -4 56 16 36 53 38 58 2z m77 -20 c9 -17 12 -18 24 -6 7
8 18 12 24 10 16 -5 32 -35 23 -44 -4 -4 -12 0 -17 10 -13 22 -29 13 -29 -17
0 -29 10 -39 27 -25 15 13 17 1 4 -20 -6 -9 -15 -11 -27 -6 -19 8 -28 11 -50
13 -9 2 -9 13 -2 42 11 42 7 57 -11 45 -6 -3 -11 -22 -11 -41 0 -27 -4 -34
-20 -34 -21 0 -28 16 -10 22 6 2 11 20 12 41 1 34 3 37 27 34 14 -2 31 -13 36
-24z m2259 -20 c3 -21 6 -50 6 -65 0 -16 5 -28 12 -28 27 0 -9 -18 -49 -25
-40 -6 -43 -5 -54 21 -13 36 2 74 31 74 11 0 20 -2 20 -4 0 -2 3 -11 6 -19 3
-10 -3 -17 -20 -21 -14 -3 -26 -11 -26 -16 0 -16 20 -22 34 -10 11 8 16 8 20
-2 8 -18 -1 93 -9 115 -5 11 -2 17 8 17 9 0 17 -14 21 -37z m-2004 12 c7 -9 9
-19 5 -23 -4 -4 -10 -1 -12 6 -9 23 -25 12 -19 -13 4 -16 2 -25 -5 -25 -8 0
-10 -15 -7 -45 6 -46 -2 -54 -31 -36 -9 6 -10 11 -2 15 6 4 11 26 11 49 0 40
21 87 39 87 5 0 14 -7 21 -15z m-120 -25 c14 -26 5 -40 -21 -33 -17 5 -20 2
-17 -13 2 -11 11 -18 21 -16 21 4 23 -16 2 -24 -36 -14 -58 42 -35 87 14 25
36 24 50 -1z m1874 -31 c3 -17 6 -47 6 -65 0 -19 4 -34 8 -34 4 0 6 15 4 33
-5 43 21 69 45 45 18 -19 10 -38 -17 -38 -13 0 -17 -5 -14 -15 7 -18 30 -20
37 -2 3 6 6 2 6 -9 1 -23 -20 -37 -43 -28 -8 3 -17 1 -21 -5 -8 -15 -48 -14
-63 1 -25 25 -11 88 19 88 21 0 24 11 8 27 -6 6 -8 16 -5 22 12 19 23 12 30
-20z m-1549 11 c8 0 19 -9 25 -21 9 -16 8 -26 -4 -44 -13 -20 -14 -29 -4 -50
15 -33 28 -32 28 3 0 48 40 69 66 35 8 -11 13 -13 14 -5 0 6 11 12 25 12 18 0
23 -4 19 -15 -5 -12 -10 -13 -20 -4 -21 17 -17 -5 4 -25 18 -15 19 -15 30 9
12 26 47 34 55 13 3 -10 7 -10 19 0 28 23 48 4 48 -45 0 -30 4 -42 11 -37 7 4
9 22 6 45 -5 36 -3 39 19 39 13 0 24 -4 24 -10 0 -5 -4 -10 -10 -10 -5 0 -10
-20 -10 -45 l0 -46 -37 6 c-21 4 -44 8 -50 10 -21 7 -15 41 10 58 12 8 18 19
14 23 -4 5 -12 2 -17 -5 -4 -8 -22 -14 -40 -13 -24 0 -30 -3 -28 -16 2 -9 11
-16 21 -16 22 2 22 -15 1 -23 -11 -4 -23 1 -32 13 -10 13 -16 15 -19 7 -3 -7
-16 -13 -29 -13 -18 0 -24 5 -24 23 1 21 1 21 14 4 8 -10 17 -14 20 -9 8 14
-30 45 -59 48 -19 2 -25 -2 -25 -18 0 -15 5 -19 20 -15 11 3 20 1 20 -4 0 -15
-30 -23 -42 -11 -7 7 -16 8 -23 2 -14 -12 -27 -2 -47 40 l-18 35 3 -34 c1 -18
-1 -33 -5 -32 -5 1 -15 1 -24 1 -13 0 -14 3 -5 13 6 8 12 41 13 75 2 47 6 61
16 57 8 -3 20 -5 27 -5z m-166 -13 c6 -8 23 -12 41 -9 32 4 42 -11 14 -22 -13
-5 -15 -15 -11 -45 4 -34 3 -38 -14 -34 -15 4 -17 11 -12 32 l6 26 -21 -25
c-17 -20 -24 -23 -39 -14 -25 15 -29 61 -7 85 20 23 28 24 43 6z m1601 -42 c0
-24 4 -55 9 -68 8 -20 6 -27 -5 -31 -32 -12 -55 -5 -66 19 -12 27 -24 30 -48
15 -12 -7 -12 -12 -3 -21 9 -9 16 -9 29 2 14 12 16 11 12 -6 -2 -13 -12 -20
-28 -21 -14 0 -31 -3 -38 -8 -18 -11 -32 2 -32 30 0 14 -4 33 -9 42 -5 10 -5
27 1 42 8 18 12 21 16 10 3 -8 10 -19 16 -23 7 -6 8 -10 1 -13 -13 -5 -7 -74
6 -74 5 0 7 11 3 24 -12 49 43 93 61 49 6 -16 8 -15 16 5 4 12 16 22 25 22 12
0 15 6 10 24 -3 12 -3 26 1 29 13 14 23 -6 23 -48z m256 0 c-6 -30 -14 -55
-19 -55 -6 0 -47 82 -47 96 0 2 6 4 14 4 7 0 18 -15 24 -32 l10 -33 1 38 c1
23 6 37 14 37 10 0 11 -12 3 -55z m-1226 -25 c0 -22 4 -28 15 -24 17 7 21 -3
28 -63 4 -33 2 -43 -9 -43 -10 0 -14 13 -14 45 0 27 -5 45 -11 45 -8 0 -10
-15 -6 -46 4 -37 2 -44 -11 -42 -20 4 -24 158 -4 158 7 0 12 -13 12 -30z m310
-39 c0 -33 3 -66 6 -74 7 -18 -45 -30 -64 -14 -22 17 -11 80 16 92 17 8 21 16
17 33 -4 15 -1 22 10 22 12 0 15 -13 15 -59z m70 49 c0 -5 -4 -10 -10 -10 -5
0 -10 5 -10 10 0 6 5 10 10 10 6 0 10 -4 10 -10z m134 -33 c8 -6 7 -10 -1 -14
-17 -6 -17 -73 -1 -73 9 0 9 -3 0 -12 -19 -19 -31 2 -33 58 -2 53 10 92 19 64
3 -8 10 -19 16 -23z m254 11 c5 -7 12 -31 14 -52 3 -35 0 -39 -21 -43 -22 -3
-40 10 -41 29 0 4 10 16 22 28 12 11 18 23 14 27 -4 4 -10 2 -14 -4 -4 -6 -16
-11 -27 -10 -21 2 -21 1 -12 -50 6 -28 4 -33 -13 -33 -15 0 -18 6 -15 31 4 36
-3 61 -16 53 -5 -3 -9 -14 -9 -25 0 -11 -10 -24 -22 -29 -22 -8 -22 -9 5 -9
23 -1 27 -5 27 -30 0 -21 -6 -30 -21 -34 -33 -9 -51 3 -45 29 7 26 -9 42 -18
19 -7 -19 -21 -19 -40 1 -33 32 -9 105 29 90 23 -8 19 -46 -5 -46 -12 0 -20
-7 -20 -16 0 -12 6 -15 23 -10 12 3 25 6 29 6 4 0 5 13 2 29 -8 37 6 45 79 47
31 0 60 4 64 7 10 10 19 8 31 -5z m-803 -18 c12 -19 -6 -32 -19 -14 -12 16
-13 16 -20 -1 -8 -21 1 -55 15 -55 5 0 9 5 9 10 0 6 5 10 10 10 7 0 7 -6 0
-20 -25 -47 -75 5 -52 55 12 25 45 34 57 15z m507 -55 c2 -35 0 -45 -12 -45
-12 0 -14 10 -12 45 3 28 0 45 -7 45 -6 0 -11 -19 -11 -44 0 -43 0 -44 -38
-47 l-37 -4 1 50 c3 62 22 72 26 13 2 -24 8 -42 13 -40 13 3 14 62 1 62 -16 0
7 18 29 22 30 7 43 -8 47 -57z m-247 42 c2 -7 6 -31 8 -55 4 -36 3 -43 -11
-40 -13 2 -16 13 -13 52 2 33 -1 46 -8 42 -6 -4 -11 -25 -11 -47 l0 -39 -50 0
c-45 0 -50 2 -50 23 0 12 9 28 20 35 12 7 18 17 14 23 -4 8 -9 7 -15 -2 -4 -7
-11 -10 -14 -7 -16 16 9 25 65 26 39 1 62 -3 65 -11z"/>
<path d="M3935 920 c-3 -5 -2 -10 4 -10 5 0 13 5 16 10 3 6 2 10 -4 10 -5 0
-13 -4 -16 -10z"/>
<path d="M3750 835 c0 -24 5 -35 15 -35 15 0 20 26 9 54 -11 28 -24 17 -24
-19z"/>
<path d="M3799 838 c4 -28 6 -29 9 -9 2 13 0 27 -5 32 -6 6 -7 -3 -4 -23z"/>
<path d="M3670 821 c0 -32 16 -49 31 -34 12 12 -5 63 -21 63 -5 0 -10 -13 -10
-29z"/>
<path d="M1255 900 c-3 -5 -1 -10 4 -10 6 0 11 5 11 10 0 6 -2 10 -4 10 -3 0
-8 -4 -11 -10z"/>
<path d="M1362 820 c0 -14 2 -19 5 -12 2 6 2 18 0 25 -3 6 -5 1 -5 -13z"/>
<path d="M3555 810 c-3 -5 -1 -10 4 -10 6 0 11 5 11 10 0 6 -2 10 -4 10 -3 0
-8 -4 -11 -10z"/>
<path d="M3334 756 c-8 -21 -1 -49 14 -54 8 -2 12 7 12 27 0 33 -17 51 -26 27z"/>
<path d="M1810 803 c0 -6 -3 -18 -6 -27 -4 -10 -1 -16 9 -16 23 0 28 15 12 36
-8 10 -15 14 -15 7z"/>
<path d="M1895 740 c-3 -5 1 -10 10 -10 9 0 13 5 10 10 -3 6 -8 10 -10 10 -2
0 -7 -4 -10 -10z"/>
<path d="M2025 720 c-3 -5 1 -10 10 -10 9 0 13 5 10 10 -3 6 -8 10 -10 10 -2
0 -7 -4 -10 -10z"/>
<path d="M2096 671 c-4 -7 -5 -15 -2 -18 9 -9 19 4 14 18 -4 11 -6 11 -12 0z"/>
<path d="M1624 786 c-8 -21 -1 -49 13 -53 6 -2 14 5 17 15 12 36 -17 72 -30
38z"/>
<path d="M3215 731 c-7 -25 4 -51 22 -51 11 0 14 6 9 23 -3 12 -6 28 -6 35 0
19 -18 14 -25 -7z"/>
<path d="M3145 730 c-3 -5 1 -10 10 -10 9 0 13 5 10 10 -3 6 -8 10 -10 10 -2
0 -7 -4 -10 -10z"/>
<path d="M2552 658 c4 -46 28 -49 28 -4 0 26 -4 36 -16 36 -11 0 -14 -8 -12
-32z"/>
<path d="M2900 690 c0 -11 5 -20 10 -20 6 0 10 9 10 20 0 11 -4 20 -10 20 -5
0 -10 -9 -10 -20z"/>
<path d="M3036 671 c-4 -7 -5 -15 -2 -18 9 -9 19 4 14 18 -4 11 -6 11 -12 0z"/>
<path d="M2900 604 c0 -9 7 -14 17 -12 25 5 28 28 4 28 -12 0 -21 -6 -21 -16z"/>
<path d="M2440 660 c0 -16 5 -30 10 -30 6 0 10 14 10 30 0 17 -4 30 -10 30 -5
0 -10 -13 -10 -30z"/>
<path d="M2407 654 c-4 -4 -7 -14 -7 -23 0 -11 3 -12 11 -4 6 6 10 16 7 23 -2
6 -7 8 -11 4z"/>
<path d="M1771 1344 c-24 -20 -31 -34 -31 -62 1 -40 11 -59 50 -85 33 -23 48
-22 20 1 -60 48 4 159 80 139 32 -8 23 3 -15 19 -49 20 -69 18 -104 -12z"/>
<path d="M3110 1354 c-20 -12 -21 -14 -4 -9 14 3 30 -3 48 -20 29 -27 46 -25
46 4 0 40 -45 53 -90 25z"/>
<path d="M3696 1351 c-9 -14 -173 -120 -253 -163 -41 -23 -121 -61 -177 -85
-73 -32 -90 -42 -62 -38 50 8 187 76 336 166 115 70 195 129 173 129 -7 0 -14
-4 -17 -9z"/>
<path d="M3047 1328 c-15 -5 -25 -14 -22 -18 7 -11 55 9 55 22 0 4 -1 8 -2 7
-2 0 -15 -5 -31 -11z"/>
<path d="M1933 1307 c4 -10 7 -28 7 -40 1 -22 1 -22 15 -3 15 19 22 56 8 43
-3 -4 -13 -1 -21 6 -13 10 -15 9 -9 -6z"/>
<path d="M1420 1255 c33 -40 334 -192 361 -183 5 2 -35 22 -89 46 -54 23 -141
67 -192 97 -51 31 -87 48 -80 40z"/>
<path d="M3250 1240 c0 -5 4 -10 9 -10 6 0 13 5 16 10 3 6 -1 10 -9 10 -9 0
-16 -4 -16 -10z"/>
<path d="M1873 1173 c9 -2 23 -2 30 0 6 3 -1 5 -18 5 -16 0 -22 -2 -12 -5z"/>
<path d="M3020 1160 c0 -12 -13 -29 -32 -41 -18 -12 -25 -18 -15 -15 11 3 30
9 43 12 17 4 24 13 24 29 0 13 -4 27 -10 30 -5 3 -10 -3 -10 -15z"/>
<path d="M2208 1086 c-22 -20 -24 -25 -12 -30 9 -3 23 -6 32 -6 15 0 15 2 2
10 -12 8 -13 13 -2 30 15 25 13 25 -20 -4z"/>
<path d="M2258 1093 c6 -2 18 -2 25 0 6 3 1 5 -13 5 -14 0 -19 -2 -12 -5z"/>
<path d="M2875 1080 c-3 -6 1 -7 9 -4 18 7 21 14 7 14 -6 0 -13 -4 -16 -10z"/>
<path d="M2748 1053 c6 -2 18 -2 25 0 6 3 1 5 -13 5 -14 0 -19 -2 -12 -5z"/>
</g>
</svg>
